# xmcd
#
# Track frame offsets:
#	150
#	26140
#	45428
#	76475
#	106643
#	122700
#	146223
#	160690
#
# Disc length: 2548 seconds
#
# Revision: 1
# Processed by: cddbd v1.5.1PL0 Copyright (c) Steve Scherf et al.
# Submitted via: CDex 1.50Beta5
#
DISCID=5f09f208
DTITLE=赤木りえ - THE PROMISED LAND (Isla Del Encanto)
DYEAR=1900
DGENRE=Fusion
TTITLE0=Birdland
TTITLE1=Soul Bossa Nova
TTITLE2=Obsesion
TTITLE3=The Promised Land
TTITLE4=Motivo #3
TTITLE5=Shi Wa Zu (Diciembre en Barrio Obrero)
TTITLE6=Felices Dias
TTITLE7=Obsesion (Flute Version)
EXTD=
EXTT0=
EXTT1=
EXTT2=
EXTT3=
EXTT4=
EXTT5=
EXTT6=
EXTT7=
PLAYORDER=
